<mxfile host="app.diagrams.net" modified="2023-05-27T15:40:05.691Z" agent="Mozilla/5.0 (Windows NT 10.0; Win64; x64) AppleWebKit/537.36 (KHTML, like Gecko) Chrome/112.0.0.0 Safari/537.36 OPR/98.0.0.0" etag="IZBcQbdI7KIqwqoOv7rp" version="21.3.4" type="device">
  <diagram name="Page-1" id="-0ytKRYOSGtN3MAUQzW2">
    <mxGraphModel dx="2625" dy="1453" grid="1" gridSize="10" guides="1" tooltips="1" connect="1" arrows="1" fold="1" page="1" pageScale="1" pageWidth="2000" pageHeight="2000" math="0" shadow="0">
      <root>
        <mxCell id="0" />
        <mxCell id="1" parent="0" />
        <mxCell id="0p3hPItLnhnMSibFmajC-6" value="" style="edgeStyle=orthogonalEdgeStyle;rounded=0;orthogonalLoop=1;jettySize=auto;html=1;" parent="1" source="0p3hPItLnhnMSibFmajC-1" target="0p3hPItLnhnMSibFmajC-5" edge="1">
          <mxGeometry relative="1" as="geometry" />
        </mxCell>
        <mxCell id="0p3hPItLnhnMSibFmajC-9" value="" style="edgeStyle=orthogonalEdgeStyle;rounded=0;orthogonalLoop=1;jettySize=auto;html=1;" parent="1" source="0p3hPItLnhnMSibFmajC-1" target="0p3hPItLnhnMSibFmajC-8" edge="1">
          <mxGeometry relative="1" as="geometry" />
        </mxCell>
        <mxCell id="0p3hPItLnhnMSibFmajC-1" value="&lt;font style=&quot;font-size: 32px;&quot;&gt;1&lt;/font&gt;" style="ellipse;whiteSpace=wrap;html=1;aspect=fixed;" parent="1" vertex="1">
          <mxGeometry x="1100" y="130" width="80" height="80" as="geometry" />
        </mxCell>
        <mxCell id="A_UaZh8QOuUnQIDMnnAE-4" style="edgeStyle=orthogonalEdgeStyle;rounded=0;orthogonalLoop=1;jettySize=auto;html=1;entryX=0.5;entryY=0;entryDx=0;entryDy=0;" edge="1" parent="1" source="0p3hPItLnhnMSibFmajC-5" target="A_UaZh8QOuUnQIDMnnAE-1">
          <mxGeometry relative="1" as="geometry" />
        </mxCell>
        <mxCell id="0p3hPItLnhnMSibFmajC-5" value="&lt;font style=&quot;font-size: 32px;&quot;&gt;2&lt;/font&gt;" style="ellipse;whiteSpace=wrap;html=1;aspect=fixed;" parent="1" vertex="1">
          <mxGeometry x="1260" y="130" width="80" height="80" as="geometry" />
        </mxCell>
        <mxCell id="0p3hPItLnhnMSibFmajC-13" value="" style="edgeStyle=orthogonalEdgeStyle;rounded=0;orthogonalLoop=1;jettySize=auto;html=1;" parent="1" source="0p3hPItLnhnMSibFmajC-8" target="0p3hPItLnhnMSibFmajC-12" edge="1">
          <mxGeometry relative="1" as="geometry" />
        </mxCell>
        <mxCell id="0p3hPItLnhnMSibFmajC-46" style="edgeStyle=orthogonalEdgeStyle;rounded=0;orthogonalLoop=1;jettySize=auto;html=1;entryX=0;entryY=0.5;entryDx=0;entryDy=0;" parent="1" source="0p3hPItLnhnMSibFmajC-8" target="0p3hPItLnhnMSibFmajC-10" edge="1">
          <mxGeometry relative="1" as="geometry" />
        </mxCell>
        <mxCell id="0p3hPItLnhnMSibFmajC-8" value="&lt;font style=&quot;font-size: 32px;&quot;&gt;3&lt;/font&gt;" style="ellipse;whiteSpace=wrap;html=1;aspect=fixed;" parent="1" vertex="1">
          <mxGeometry x="1100" y="290" width="80" height="80" as="geometry" />
        </mxCell>
        <mxCell id="0p3hPItLnhnMSibFmajC-48" style="edgeStyle=orthogonalEdgeStyle;rounded=0;orthogonalLoop=1;jettySize=auto;html=1;entryX=1;entryY=0.5;entryDx=0;entryDy=0;" parent="1" source="0p3hPItLnhnMSibFmajC-10" target="0p3hPItLnhnMSibFmajC-12" edge="1">
          <mxGeometry relative="1" as="geometry">
            <Array as="points">
              <mxPoint x="1300" y="490" />
            </Array>
          </mxGeometry>
        </mxCell>
        <mxCell id="0p3hPItLnhnMSibFmajC-10" value="&lt;font style=&quot;font-size: 32px;&quot;&gt;4&lt;/font&gt;" style="ellipse;whiteSpace=wrap;html=1;aspect=fixed;" parent="1" vertex="1">
          <mxGeometry x="1260" y="290" width="80" height="80" as="geometry" />
        </mxCell>
        <mxCell id="0p3hPItLnhnMSibFmajC-16" value="" style="edgeStyle=orthogonalEdgeStyle;rounded=0;orthogonalLoop=1;jettySize=auto;html=1;" parent="1" source="0p3hPItLnhnMSibFmajC-12" target="0p3hPItLnhnMSibFmajC-15" edge="1">
          <mxGeometry relative="1" as="geometry" />
        </mxCell>
        <mxCell id="0p3hPItLnhnMSibFmajC-34" value="" style="edgeStyle=orthogonalEdgeStyle;rounded=0;orthogonalLoop=1;jettySize=auto;html=1;" parent="1" source="0p3hPItLnhnMSibFmajC-12" target="0p3hPItLnhnMSibFmajC-33" edge="1">
          <mxGeometry relative="1" as="geometry" />
        </mxCell>
        <mxCell id="0p3hPItLnhnMSibFmajC-12" value="&lt;font style=&quot;font-size: 32px;&quot;&gt;5&lt;/font&gt;" style="ellipse;whiteSpace=wrap;html=1;aspect=fixed;" parent="1" vertex="1">
          <mxGeometry x="1100" y="450" width="80" height="80" as="geometry" />
        </mxCell>
        <mxCell id="0p3hPItLnhnMSibFmajC-18" value="" style="edgeStyle=orthogonalEdgeStyle;rounded=0;orthogonalLoop=1;jettySize=auto;html=1;" parent="1" source="0p3hPItLnhnMSibFmajC-15" target="0p3hPItLnhnMSibFmajC-17" edge="1">
          <mxGeometry relative="1" as="geometry" />
        </mxCell>
        <mxCell id="0p3hPItLnhnMSibFmajC-15" value="&lt;font style=&quot;font-size: 32px;&quot;&gt;6.1&lt;/font&gt;" style="ellipse;whiteSpace=wrap;html=1;aspect=fixed;" parent="1" vertex="1">
          <mxGeometry x="940" y="450" width="80" height="80" as="geometry" />
        </mxCell>
        <mxCell id="0p3hPItLnhnMSibFmajC-20" value="" style="edgeStyle=orthogonalEdgeStyle;rounded=0;orthogonalLoop=1;jettySize=auto;html=1;" parent="1" source="0p3hPItLnhnMSibFmajC-17" target="0p3hPItLnhnMSibFmajC-19" edge="1">
          <mxGeometry relative="1" as="geometry" />
        </mxCell>
        <mxCell id="0p3hPItLnhnMSibFmajC-17" value="&lt;font style=&quot;font-size: 32px;&quot;&gt;6.2&lt;/font&gt;" style="ellipse;whiteSpace=wrap;html=1;aspect=fixed;" parent="1" vertex="1">
          <mxGeometry x="940" y="610" width="80" height="80" as="geometry" />
        </mxCell>
        <mxCell id="0p3hPItLnhnMSibFmajC-22" value="" style="edgeStyle=orthogonalEdgeStyle;rounded=0;orthogonalLoop=1;jettySize=auto;html=1;" parent="1" source="0p3hPItLnhnMSibFmajC-19" target="0p3hPItLnhnMSibFmajC-21" edge="1">
          <mxGeometry relative="1" as="geometry" />
        </mxCell>
        <mxCell id="0p3hPItLnhnMSibFmajC-24" value="" style="edgeStyle=orthogonalEdgeStyle;rounded=0;orthogonalLoop=1;jettySize=auto;html=1;" parent="1" source="0p3hPItLnhnMSibFmajC-19" target="0p3hPItLnhnMSibFmajC-23" edge="1">
          <mxGeometry relative="1" as="geometry" />
        </mxCell>
        <mxCell id="0p3hPItLnhnMSibFmajC-19" value="&lt;font style=&quot;font-size: 32px;&quot;&gt;7&lt;/font&gt;" style="ellipse;whiteSpace=wrap;html=1;aspect=fixed;" parent="1" vertex="1">
          <mxGeometry x="780" y="610" width="80" height="80" as="geometry" />
        </mxCell>
        <mxCell id="0p3hPItLnhnMSibFmajC-25" style="edgeStyle=orthogonalEdgeStyle;rounded=0;orthogonalLoop=1;jettySize=auto;html=1;" parent="1" source="0p3hPItLnhnMSibFmajC-21" target="0p3hPItLnhnMSibFmajC-23" edge="1">
          <mxGeometry relative="1" as="geometry">
            <Array as="points">
              <mxPoint x="660" y="490" />
            </Array>
          </mxGeometry>
        </mxCell>
        <mxCell id="0p3hPItLnhnMSibFmajC-21" value="&lt;span style=&quot;font-size: 32px;&quot;&gt;8&lt;/span&gt;" style="ellipse;whiteSpace=wrap;html=1;aspect=fixed;" parent="1" vertex="1">
          <mxGeometry x="780" y="450" width="80" height="80" as="geometry" />
        </mxCell>
        <mxCell id="0p3hPItLnhnMSibFmajC-27" value="" style="edgeStyle=orthogonalEdgeStyle;rounded=0;orthogonalLoop=1;jettySize=auto;html=1;" parent="1" source="0p3hPItLnhnMSibFmajC-23" target="0p3hPItLnhnMSibFmajC-26" edge="1">
          <mxGeometry relative="1" as="geometry" />
        </mxCell>
        <mxCell id="0p3hPItLnhnMSibFmajC-29" value="" style="edgeStyle=orthogonalEdgeStyle;rounded=0;orthogonalLoop=1;jettySize=auto;html=1;" parent="1" source="0p3hPItLnhnMSibFmajC-23" target="0p3hPItLnhnMSibFmajC-28" edge="1">
          <mxGeometry relative="1" as="geometry" />
        </mxCell>
        <mxCell id="0p3hPItLnhnMSibFmajC-23" value="&lt;font style=&quot;font-size: 32px;&quot;&gt;9&lt;/font&gt;" style="ellipse;whiteSpace=wrap;html=1;aspect=fixed;" parent="1" vertex="1">
          <mxGeometry x="620" y="610" width="80" height="80" as="geometry" />
        </mxCell>
        <mxCell id="0p3hPItLnhnMSibFmajC-31" style="edgeStyle=orthogonalEdgeStyle;rounded=0;orthogonalLoop=1;jettySize=auto;html=1;entryX=0.5;entryY=1;entryDx=0;entryDy=0;" parent="1" source="0p3hPItLnhnMSibFmajC-26" target="0p3hPItLnhnMSibFmajC-17" edge="1">
          <mxGeometry relative="1" as="geometry" />
        </mxCell>
        <mxCell id="0p3hPItLnhnMSibFmajC-35" style="edgeStyle=orthogonalEdgeStyle;rounded=0;orthogonalLoop=1;jettySize=auto;html=1;entryX=0;entryY=0.5;entryDx=0;entryDy=0;" parent="1" source="0p3hPItLnhnMSibFmajC-26" target="0p3hPItLnhnMSibFmajC-33" edge="1">
          <mxGeometry relative="1" as="geometry">
            <Array as="points">
              <mxPoint x="660" y="940" />
            </Array>
          </mxGeometry>
        </mxCell>
        <mxCell id="0p3hPItLnhnMSibFmajC-26" value="&lt;font style=&quot;font-size: 32px;&quot;&gt;6.3&lt;/font&gt;" style="ellipse;whiteSpace=wrap;html=1;aspect=fixed;" parent="1" vertex="1">
          <mxGeometry x="620" y="770" width="80" height="80" as="geometry" />
        </mxCell>
        <mxCell id="0p3hPItLnhnMSibFmajC-30" style="edgeStyle=orthogonalEdgeStyle;rounded=0;orthogonalLoop=1;jettySize=auto;html=1;entryX=0;entryY=0.5;entryDx=0;entryDy=0;" parent="1" source="0p3hPItLnhnMSibFmajC-28" target="0p3hPItLnhnMSibFmajC-26" edge="1">
          <mxGeometry relative="1" as="geometry">
            <Array as="points">
              <mxPoint x="500" y="810" />
            </Array>
          </mxGeometry>
        </mxCell>
        <mxCell id="0p3hPItLnhnMSibFmajC-28" value="&lt;font style=&quot;font-size: 32px;&quot;&gt;10&lt;/font&gt;" style="ellipse;whiteSpace=wrap;html=1;aspect=fixed;" parent="1" vertex="1">
          <mxGeometry x="460" y="610" width="80" height="80" as="geometry" />
        </mxCell>
        <mxCell id="0p3hPItLnhnMSibFmajC-37" value="" style="edgeStyle=orthogonalEdgeStyle;rounded=0;orthogonalLoop=1;jettySize=auto;html=1;" parent="1" source="0p3hPItLnhnMSibFmajC-33" target="0p3hPItLnhnMSibFmajC-36" edge="1">
          <mxGeometry relative="1" as="geometry" />
        </mxCell>
        <mxCell id="0p3hPItLnhnMSibFmajC-39" value="" style="edgeStyle=orthogonalEdgeStyle;rounded=0;orthogonalLoop=1;jettySize=auto;html=1;" parent="1" source="0p3hPItLnhnMSibFmajC-33" target="0p3hPItLnhnMSibFmajC-38" edge="1">
          <mxGeometry relative="1" as="geometry" />
        </mxCell>
        <mxCell id="0p3hPItLnhnMSibFmajC-33" value="&lt;font style=&quot;font-size: 32px;&quot;&gt;11&lt;/font&gt;" style="ellipse;whiteSpace=wrap;html=1;aspect=fixed;" parent="1" vertex="1">
          <mxGeometry x="1100" y="900" width="80" height="80" as="geometry" />
        </mxCell>
        <mxCell id="A_UaZh8QOuUnQIDMnnAE-2" value="" style="edgeStyle=orthogonalEdgeStyle;rounded=0;orthogonalLoop=1;jettySize=auto;html=1;" edge="1" parent="1" source="0p3hPItLnhnMSibFmajC-36" target="A_UaZh8QOuUnQIDMnnAE-1">
          <mxGeometry relative="1" as="geometry" />
        </mxCell>
        <mxCell id="0p3hPItLnhnMSibFmajC-36" value="&lt;font style=&quot;font-size: 32px;&quot;&gt;12&lt;/font&gt;" style="ellipse;whiteSpace=wrap;html=1;aspect=fixed;" parent="1" vertex="1">
          <mxGeometry x="1260" y="900" width="80" height="80" as="geometry" />
        </mxCell>
        <mxCell id="0p3hPItLnhnMSibFmajC-41" value="" style="edgeStyle=orthogonalEdgeStyle;rounded=0;orthogonalLoop=1;jettySize=auto;html=1;" parent="1" source="0p3hPItLnhnMSibFmajC-38" target="0p3hPItLnhnMSibFmajC-40" edge="1">
          <mxGeometry relative="1" as="geometry" />
        </mxCell>
        <mxCell id="0p3hPItLnhnMSibFmajC-49" style="edgeStyle=orthogonalEdgeStyle;rounded=0;orthogonalLoop=1;jettySize=auto;html=1;entryX=1;entryY=0.5;entryDx=0;entryDy=0;" parent="1" source="0p3hPItLnhnMSibFmajC-38" target="0p3hPItLnhnMSibFmajC-42" edge="1">
          <mxGeometry relative="1" as="geometry" />
        </mxCell>
        <mxCell id="0p3hPItLnhnMSibFmajC-38" value="&lt;font style=&quot;font-size: 32px;&quot;&gt;13&lt;/font&gt;" style="ellipse;whiteSpace=wrap;html=1;aspect=fixed;" parent="1" vertex="1">
          <mxGeometry x="1100" y="1060" width="80" height="80" as="geometry" />
        </mxCell>
        <mxCell id="0p3hPItLnhnMSibFmajC-45" value="" style="edgeStyle=orthogonalEdgeStyle;rounded=0;orthogonalLoop=1;jettySize=auto;html=1;" parent="1" source="0p3hPItLnhnMSibFmajC-42" target="0p3hPItLnhnMSibFmajC-44" edge="1">
          <mxGeometry relative="1" as="geometry" />
        </mxCell>
        <mxCell id="0p3hPItLnhnMSibFmajC-42" value="&lt;font style=&quot;font-size: 32px;&quot;&gt;14.1&lt;/font&gt;" style="ellipse;whiteSpace=wrap;html=1;aspect=fixed;" parent="1" vertex="1">
          <mxGeometry x="940" y="1060" width="80" height="80" as="geometry" />
        </mxCell>
        <mxCell id="0p3hPItLnhnMSibFmajC-51" value="" style="edgeStyle=orthogonalEdgeStyle;rounded=0;orthogonalLoop=1;jettySize=auto;html=1;" parent="1" source="0p3hPItLnhnMSibFmajC-44" target="0p3hPItLnhnMSibFmajC-50" edge="1">
          <mxGeometry relative="1" as="geometry" />
        </mxCell>
        <mxCell id="0p3hPItLnhnMSibFmajC-44" value="&lt;font style=&quot;font-size: 32px;&quot;&gt;14.2&lt;/font&gt;" style="ellipse;whiteSpace=wrap;html=1;aspect=fixed;" parent="1" vertex="1">
          <mxGeometry x="780" y="1060" width="80" height="80" as="geometry" />
        </mxCell>
        <mxCell id="0p3hPItLnhnMSibFmajC-47" value="" style="edgeStyle=orthogonalEdgeStyle;rounded=0;orthogonalLoop=1;jettySize=auto;html=1;" parent="1" source="0p3hPItLnhnMSibFmajC-38" target="0p3hPItLnhnMSibFmajC-40" edge="1">
          <mxGeometry relative="1" as="geometry">
            <mxPoint x="1180" y="1100" as="sourcePoint" />
            <mxPoint x="1300" y="1220" as="targetPoint" />
          </mxGeometry>
        </mxCell>
        <mxCell id="A_UaZh8QOuUnQIDMnnAE-3" style="edgeStyle=orthogonalEdgeStyle;rounded=0;orthogonalLoop=1;jettySize=auto;html=1;entryX=0.5;entryY=1;entryDx=0;entryDy=0;" edge="1" parent="1" source="0p3hPItLnhnMSibFmajC-40" target="A_UaZh8QOuUnQIDMnnAE-1">
          <mxGeometry relative="1" as="geometry" />
        </mxCell>
        <mxCell id="0p3hPItLnhnMSibFmajC-40" value="&lt;font style=&quot;font-size: 32px;&quot;&gt;17&lt;/font&gt;" style="ellipse;whiteSpace=wrap;html=1;aspect=fixed;" parent="1" vertex="1">
          <mxGeometry x="1100" y="1220" width="80" height="80" as="geometry" />
        </mxCell>
        <mxCell id="0p3hPItLnhnMSibFmajC-53" value="" style="edgeStyle=orthogonalEdgeStyle;rounded=0;orthogonalLoop=1;jettySize=auto;html=1;" parent="1" source="0p3hPItLnhnMSibFmajC-50" target="0p3hPItLnhnMSibFmajC-52" edge="1">
          <mxGeometry relative="1" as="geometry" />
        </mxCell>
        <mxCell id="0p3hPItLnhnMSibFmajC-55" value="" style="edgeStyle=orthogonalEdgeStyle;rounded=0;orthogonalLoop=1;jettySize=auto;html=1;" parent="1" source="0p3hPItLnhnMSibFmajC-50" target="0p3hPItLnhnMSibFmajC-54" edge="1">
          <mxGeometry relative="1" as="geometry" />
        </mxCell>
        <mxCell id="0p3hPItLnhnMSibFmajC-50" value="&lt;font style=&quot;font-size: 32px;&quot;&gt;15&lt;/font&gt;" style="ellipse;whiteSpace=wrap;html=1;aspect=fixed;" parent="1" vertex="1">
          <mxGeometry x="620" y="1060" width="80" height="80" as="geometry" />
        </mxCell>
        <mxCell id="A_UaZh8QOuUnQIDMnnAE-5" style="edgeStyle=orthogonalEdgeStyle;rounded=0;orthogonalLoop=1;jettySize=auto;html=1;entryX=1;entryY=0.5;entryDx=0;entryDy=0;" edge="1" parent="1" source="0p3hPItLnhnMSibFmajC-52" target="A_UaZh8QOuUnQIDMnnAE-1">
          <mxGeometry relative="1" as="geometry">
            <mxPoint x="1620" y="940" as="targetPoint" />
            <Array as="points">
              <mxPoint x="500" y="1420" />
              <mxPoint x="1621" y="1420" />
              <mxPoint x="1621" y="940" />
            </Array>
          </mxGeometry>
        </mxCell>
        <mxCell id="0p3hPItLnhnMSibFmajC-52" value="&lt;font style=&quot;font-size: 32px;&quot;&gt;16&lt;/font&gt;" style="ellipse;whiteSpace=wrap;html=1;aspect=fixed;" parent="1" vertex="1">
          <mxGeometry x="460" y="1060" width="80" height="80" as="geometry" />
        </mxCell>
        <mxCell id="0p3hPItLnhnMSibFmajC-57" style="edgeStyle=orthogonalEdgeStyle;rounded=0;orthogonalLoop=1;jettySize=auto;html=1;entryX=0.5;entryY=1;entryDx=0;entryDy=0;" parent="1" source="0p3hPItLnhnMSibFmajC-54" target="0p3hPItLnhnMSibFmajC-44" edge="1">
          <mxGeometry relative="1" as="geometry" />
        </mxCell>
        <mxCell id="0p3hPItLnhnMSibFmajC-58" style="edgeStyle=orthogonalEdgeStyle;rounded=0;orthogonalLoop=1;jettySize=auto;html=1;entryX=0.5;entryY=1;entryDx=0;entryDy=0;" parent="1" source="0p3hPItLnhnMSibFmajC-54" target="0p3hPItLnhnMSibFmajC-40" edge="1">
          <mxGeometry relative="1" as="geometry">
            <Array as="points">
              <mxPoint x="660" y="1320" />
              <mxPoint x="1140" y="1320" />
            </Array>
          </mxGeometry>
        </mxCell>
        <mxCell id="0p3hPItLnhnMSibFmajC-54" value="&lt;font style=&quot;font-size: 32px;&quot;&gt;14.3&lt;br&gt;&lt;/font&gt;" style="ellipse;whiteSpace=wrap;html=1;aspect=fixed;" parent="1" vertex="1">
          <mxGeometry x="620" y="1220" width="80" height="80" as="geometry" />
        </mxCell>
        <mxCell id="A_UaZh8QOuUnQIDMnnAE-1" value="&lt;font style=&quot;font-size: 32px;&quot;&gt;18&lt;/font&gt;" style="ellipse;whiteSpace=wrap;html=1;aspect=fixed;" vertex="1" parent="1">
          <mxGeometry x="1420" y="900" width="80" height="80" as="geometry" />
        </mxCell>
      </root>
    </mxGraphModel>
  </diagram>
</mxfile>
